<svg width="32" height="32" viewBox="0 0 32 32" fill="none" xmlns="http://www.w3.org/2000/svg">
<g clip-path="url(#clip0_1_5593)">
<path d="M12 6.66675H9.33329C8.62605 6.66675 7.94777 6.9477 7.44767 7.4478C6.94758 7.94789 6.66663 8.62617 6.66663 9.33341V25.3334C6.66663 26.0407 6.94758 26.7189 7.44767 27.219C7.94777 27.7191 8.62605 28.0001 9.33329 28.0001H22.6666C23.3739 28.0001 24.0521 27.7191 24.5522 27.219C25.0523 26.7189 25.3333 26.0407 25.3333 25.3334V9.33341C25.3333 8.62617 25.0523 7.94789 24.5522 7.4478C24.0521 6.9477 23.3739 6.66675 22.6666 6.66675H20" stroke="#2C3E50" stroke-width="2" stroke-linecap="round" stroke-linejoin="round"/>
<path d="M12 6.66667C12 5.95942 12.281 5.28115 12.781 4.78105C13.2811 4.28095 13.9594 4 14.6667 4H17.3333C18.0406 4 18.7189 4.28095 19.219 4.78105C19.719 5.28115 20 5.95942 20 6.66667C20 7.37391 19.719 8.05219 19.219 8.55229C18.7189 9.05238 18.0406 9.33333 17.3333 9.33333H14.6667C13.9594 9.33333 13.2811 9.05238 12.781 8.55229C12.281 8.05219 12 7.37391 12 6.66667Z" stroke="#2C3E50" stroke-width="2" stroke-linecap="round" stroke-linejoin="round"/>
<path d="M12 16H12.0133" stroke="#2C3E50" stroke-width="2" stroke-linecap="round" stroke-linejoin="round"/>
<path d="M17.3334 16H20" stroke="#2C3E50" stroke-width="2" stroke-linecap="round" stroke-linejoin="round"/>
<path d="M12 21.3333H12.0133" stroke="#2C3E50" stroke-width="2" stroke-linecap="round" stroke-linejoin="round"/>
<path d="M17.3334 21.3333H20" stroke="#2C3E50" stroke-width="2" stroke-linecap="round" stroke-linejoin="round"/>
</g>
<defs>
<clipPath id="clip0_1_5593">
<rect width="32" height="32" fill="white"/>
</clipPath>
</defs>
</svg>
