<svg width="32" height="32" viewBox="0 0 32 32" fill="none" xmlns="http://www.w3.org/2000/svg">
<g clip-path="url(#clip0_1_5721)">
<path d="M10.6667 21.3334V16.0001C10.6667 14.5856 11.2286 13.229 12.2288 12.2288C13.229 11.2287 14.5855 10.6667 16 10.6667C17.4145 10.6667 18.7711 11.2287 19.7713 12.2288C20.7715 13.229 21.3334 14.5856 21.3334 16.0001V21.3334" stroke="#FF4444" stroke-width="2" stroke-linecap="round" stroke-linejoin="round"/>
<path d="M4 16H5.33333M16 4V5.33333M26.6667 16H28M7.46667 7.46667L8.4 8.4M24.5333 7.46667L23.6 8.4" stroke="#FF4444" stroke-width="2" stroke-linecap="round" stroke-linejoin="round"/>
<path d="M8 22.6666C8 22.313 8.14048 21.9738 8.39052 21.7238C8.64057 21.4737 8.97971 21.3333 9.33333 21.3333H22.6667C23.0203 21.3333 23.3594 21.4737 23.6095 21.7238C23.8595 21.9738 24 22.313 24 22.6666V25.3333C24 25.6869 23.8595 26.026 23.6095 26.2761C23.3594 26.5261 23.0203 26.6666 22.6667 26.6666H9.33333C8.97971 26.6666 8.64057 26.5261 8.39052 26.2761C8.14048 26.026 8 25.6869 8 25.3333V22.6666Z" stroke="#FF4444" stroke-width="2" stroke-linecap="round" stroke-linejoin="round"/>
</g>
<defs>
<clipPath id="clip0_1_5721">
<rect width="32" height="32" fill="white"/>
</clipPath>
</defs>
</svg>
