<svg width="32" height="32" viewBox="0 0 32 32" fill="none" xmlns="http://www.w3.org/2000/svg">
<g clip-path="url(#clip0_1_5585)">
<path d="M6.66663 28V6.66667C6.66663 5.95942 6.94758 5.28115 7.44767 4.78105C7.94777 4.28095 8.62605 4 9.33329 4H22.6666C23.3739 4 24.0521 4.28095 24.5522 4.78105C25.0523 5.28115 25.3333 5.95942 25.3333 6.66667V28L21.3333 25.3333L18.6666 28L16 25.3333L13.3333 28L10.6666 25.3333L6.66663 28Z" stroke="#2C3E50" stroke-width="2" stroke-linecap="round" stroke-linejoin="round"/>
<path d="M18.6667 10.6667H15.3334C14.8029 10.6667 14.2942 10.8775 13.9192 11.2525C13.5441 11.6276 13.3334 12.1363 13.3334 12.6667C13.3334 13.1972 13.5441 13.7059 13.9192 14.081C14.2942 14.456 14.8029 14.6667 15.3334 14.6667H16.6667C17.1971 14.6667 17.7058 14.8775 18.0809 15.2525C18.456 15.6276 18.6667 16.1363 18.6667 16.6667C18.6667 17.1972 18.456 17.7059 18.0809 18.081C17.7058 18.456 17.1971 18.6667 16.6667 18.6667H13.3334M16 18.6667V20.6667M16 8.66675V10.6667" stroke="#2C3E50" stroke-width="2" stroke-linecap="round" stroke-linejoin="round"/>
</g>
<defs>
<clipPath id="clip0_1_5585">
<rect width="32" height="32" fill="white"/>
</clipPath>
</defs>
</svg>
