<svg width="32" height="32" viewBox="0 0 32 32" fill="none" xmlns="http://www.w3.org/2000/svg">
<g clip-path="url(#clip0_1_5605)">
<path d="M12.244 8.15588C10.5187 7.80939 8.72724 8.04145 7.14715 8.81612C5.56706 9.59079 4.28648 10.8648 3.50375 12.441C2.72102 14.0171 2.47982 15.8073 2.81749 17.5344C3.15517 19.2614 4.05288 20.829 5.3716 21.9942C6.69031 23.1595 8.35645 23.8574 10.1119 23.9799C11.8675 24.1024 13.6144 23.6426 15.0821 22.6718C16.5499 21.701 17.6566 20.2733 18.2309 18.6099C18.8051 16.9465 18.8149 15.1401 18.2587 13.4705" stroke="#2C3E50" stroke-width="2" stroke-linecap="round" stroke-linejoin="round"/>
<path d="M19.7507 23.8439C21.4778 24.1921 23.2716 23.9605 24.8536 23.1848C26.4356 22.4092 27.7173 21.133 28.4998 19.5544C29.2822 17.9758 29.5216 16.183 29.1808 14.4543C28.84 12.7257 27.9381 11.1579 26.6151 9.99436C25.292 8.83081 23.6219 8.13657 21.8638 8.01942C20.1058 7.90227 18.3583 8.36875 16.8926 9.34647C15.4268 10.3242 14.3249 11.7584 13.7577 13.4266C13.1906 15.0947 13.19 16.9034 13.756 18.5719" stroke="#2C3E50" stroke-width="2" stroke-linecap="round" stroke-linejoin="round"/>
</g>
<defs>
<clipPath id="clip0_1_5605">
<rect width="32" height="32" fill="white"/>
</clipPath>
</defs>
</svg>
