<svg width="44" height="44" viewBox="0 0 44 44" fill="none" xmlns="http://www.w3.org/2000/svg">
<g clip-path="url(#clip0_1_2783)">
<path d="M7.3335 34.8333C7.3335 35.8058 7.7198 36.7384 8.40744 37.426C9.09507 38.1136 10.0277 38.5 11.0002 38.5C11.9726 38.5 12.9053 38.1136 13.5929 37.426C14.2805 36.7384 14.6668 35.8058 14.6668 34.8333C14.6668 33.8608 14.2805 32.9282 13.5929 32.2406C12.9053 31.5529 11.9726 31.1666 11.0002 31.1666C10.0277 31.1666 9.09507 31.5529 8.40744 32.2406C7.7198 32.9282 7.3335 33.8608 7.3335 34.8333Z" stroke="#F26522" stroke-width="2.75" stroke-linecap="round" stroke-linejoin="round"/>
<path d="M27.5 34.8333C27.5 35.8058 27.8863 36.7384 28.5739 37.426C29.2616 38.1136 30.1942 38.5 31.1667 38.5C32.1391 38.5 33.0718 38.1136 33.7594 37.426C34.447 36.7384 34.8333 35.8058 34.8333 34.8333C34.8333 33.8608 34.447 32.9282 33.7594 32.2406C33.0718 31.5529 32.1391 31.1666 31.1667 31.1666C30.1942 31.1666 29.2616 31.5529 28.5739 32.2406C27.8863 32.9282 27.5 33.8608 27.5 34.8333Z" stroke="#F26522" stroke-width="2.75" stroke-linecap="round" stroke-linejoin="round"/>
<path d="M31.1668 31.1667H11.0002V5.5H7.3335" stroke="#F26522" stroke-width="2.75" stroke-linecap="round" stroke-linejoin="round"/>
<path d="M11 9.16663L36.6667 11L34.8333 23.8333H11" stroke="#F26522" stroke-width="2.75" stroke-linecap="round" stroke-linejoin="round"/>
</g>
<defs>
<clipPath id="clip0_1_2783">
<rect width="44" height="44" fill="white"/>
</clipPath>
</defs>
</svg>
