<svg width="32" height="32" viewBox="0 0 32 32" fill="none" xmlns="http://www.w3.org/2000/svg">
<g clip-path="url(#clip0_1_5576)">
<path d="M9.33337 8.00008C9.33337 7.64646 9.47385 7.30732 9.7239 7.05727C9.97395 6.80722 10.3131 6.66675 10.6667 6.66675H21.3334C21.687 6.66675 22.0261 6.80722 22.2762 7.05727C22.5262 7.30732 22.6667 7.64646 22.6667 8.00008V24.0001C22.6667 24.3537 22.5262 24.6928 22.2762 24.9429C22.0261 25.1929 21.687 25.3334 21.3334 25.3334H10.6667C10.3131 25.3334 9.97395 25.1929 9.7239 24.9429C9.47385 24.6928 9.33337 24.3537 9.33337 24.0001V8.00008Z" stroke="#333333" stroke-width="2" stroke-linecap="round" stroke-linejoin="round"/>
<path d="M29.3334 22.6666H28C27.6464 22.6666 27.3073 22.5261 27.0572 22.2761C26.8072 22.026 26.6667 21.6869 26.6667 21.3333V10.6666C26.6667 10.313 26.8072 9.97383 27.0572 9.72378C27.3073 9.47373 27.6464 9.33325 28 9.33325H29.3334" stroke="#333333" stroke-width="2" stroke-linecap="round" stroke-linejoin="round"/>
<path d="M2.66663 22.6666H3.99996C4.35358 22.6666 4.69272 22.5261 4.94277 22.2761C5.19282 22.026 5.33329 21.6869 5.33329 21.3333V10.6666C5.33329 10.313 5.19282 9.97383 4.94277 9.72378C4.69272 9.47373 4.35358 9.33325 3.99996 9.33325H2.66663" stroke="#333333" stroke-width="2" stroke-linecap="round" stroke-linejoin="round"/>
</g>
<defs>
<clipPath id="clip0_1_5576">
<rect width="32" height="32" fill="white"/>
</clipPath>
</defs>
</svg>
