<svg width="32" height="32" viewBox="0 0 32 32" fill="none" xmlns="http://www.w3.org/2000/svg">
<g clip-path="url(#clip0_1_5566)">
<path d="M22.6667 22.6667H25.3333C26.0406 22.6667 26.7189 22.3857 27.219 21.8856C27.719 21.3855 28 20.7072 28 20V14.6667C28 13.9594 27.719 13.2811 27.219 12.781C26.7189 12.281 26.0406 12 25.3333 12H6.66667C5.95942 12 5.28115 12.281 4.78105 12.781C4.28095 13.2811 4 13.9594 4 14.6667V20C4 20.7072 4.28095 21.3855 4.78105 21.8856C5.28115 22.3857 5.95942 22.6667 6.66667 22.6667H9.33333" stroke="#333333" stroke-width="2" stroke-linecap="round" stroke-linejoin="round"/>
<path d="M22.6667 12V6.66667C22.6667 5.95942 22.3858 5.28115 21.8857 4.78105C21.3856 4.28095 20.7073 4 20 4H12C11.2928 4 10.6145 4.28095 10.1144 4.78105C9.61433 5.28115 9.33337 5.95942 9.33337 6.66667V12" stroke="#333333" stroke-width="2" stroke-linecap="round" stroke-linejoin="round"/>
<path d="M9.33337 19.9999C9.33337 19.2927 9.61433 18.6144 10.1144 18.1143C10.6145 17.6142 11.2928 17.3333 12 17.3333H20C20.7073 17.3333 21.3856 17.6142 21.8857 18.1143C22.3858 18.6144 22.6667 19.2927 22.6667 19.9999V25.3333C22.6667 26.0405 22.3858 26.7188 21.8857 27.2189C21.3856 27.719 20.7073 27.9999 20 27.9999H12C11.2928 27.9999 10.6145 27.719 10.1144 27.2189C9.61433 26.7188 9.33337 26.0405 9.33337 25.3333V19.9999Z" stroke="#333333" stroke-width="2" stroke-linecap="round" stroke-linejoin="round"/>
</g>
<defs>
<clipPath id="clip0_1_5566">
<rect width="32" height="32" fill="white"/>
</clipPath>
</defs>
</svg>
