<svg width="66" height="66" viewBox="0 0 66 66" fill="none" xmlns="http://www.w3.org/2000/svg">
<g clip-path="url(#clip0_1_2794)">
<path d="M13.75 46.75C13.75 48.2087 14.3295 49.6076 15.3609 50.6391C16.3924 51.6705 17.7913 52.25 19.25 52.25C20.7087 52.25 22.1076 51.6705 23.1391 50.6391C24.1705 49.6076 24.75 48.2087 24.75 46.75C24.75 45.2913 24.1705 43.8924 23.1391 42.8609C22.1076 41.8295 20.7087 41.25 19.25 41.25C17.7913 41.25 16.3924 41.8295 15.3609 42.8609C14.3295 43.8924 13.75 45.2913 13.75 46.75Z" stroke="#333333" stroke-width="3.5" stroke-linecap="round" stroke-linejoin="round"/>
<path d="M41.25 46.75C41.25 48.2087 41.8295 49.6076 42.8609 50.6391C43.8924 51.6705 45.2913 52.25 46.75 52.25C48.2087 52.25 49.6076 51.6705 50.6391 50.6391C51.6705 49.6076 52.25 48.2087 52.25 46.75C52.25 45.2913 51.6705 43.8924 50.6391 42.8609C49.6076 41.8295 48.2087 41.25 46.75 41.25C45.2913 41.25 43.8924 41.8295 42.8609 42.8609C41.8295 43.8924 41.25 45.2913 41.25 46.75Z" stroke="#333333" stroke-width="3.5" stroke-linecap="round" stroke-linejoin="round"/>
<path d="M13.75 46.75H8.25V35.75M5.5 13.75H35.75V46.75M24.75 46.75H41.25M52.25 46.75H57.75V30.25M57.75 30.25H35.75M57.75 30.25L49.5 16.5H35.75" stroke="#333333" stroke-width="3.5" stroke-linecap="round" stroke-linejoin="round"/>
<path d="M8.25 24.75H19.25" stroke="#333333" stroke-width="3.5" stroke-linecap="round" stroke-linejoin="round"/>
</g>
<defs>
<clipPath id="clip0_1_2794">
<rect width="66" height="66" fill="white"/>
</clipPath>
</defs>
</svg>
